# xmcd
#
# Track frame offsets: 
#        150
#        7820
#        20285
#        22920
#        36225
#        50332
#        62347
#        77247
#        90980
#        101332
#        112820
#        122117
#        130200
#        142857
#        154702
#        170537
#        181850
#        201320
#        220465
#        225117
#        227010
#        232267
#        240945
#        247272
#        268755
#
# Disc length: 3836 seconds
#
# Revision: 4
# Processed by: cddbd v1.5.2PL0 Copyright (c) Steve Scherf et al.
# Submitted via: ExactAudioCopy v0.95b4
#
DISCID=380efa19
DTITLE=Elvis Presley - Platinum A Life In Music [CD3)
DYEAR=1997
DGENRE=Rock and Roll
TTITLE0=I Got A Woman
TTITLE1=Tiger Man
TTITLE2=When My Blue Moon Turns To Gold Again
TTITLE3=Trying To Get To You
TTITLE4=If I Can Dream (Alternate Take 1)
TTITLE5=In The Ghetto (Alternate Take 3)
TTITLE6=Suspicious Minds (Alternate Take 7)
TTITLE7=Power Of My Love  (Alternate Take 3)
TTITLE8=Baby What You Want Me To Do
TTITLE9=Words
TTITLE10=Johnny B. Goode
TTITLE11=Release Me
TTITLE12=See See Rider
TTITLE13=The Wonder Of You
TTITLE14=The Sound Of Your Cry (Alternate Take 3)
TTITLE15=You Don't Have To Say You Love Me
TTITLE16=Funny How Time Slips Away
TTITLE17=I Washed My Hands In Muddy Water
TTITLE18=I Was The One
TTITLE19=Cattle Call
TTITLE20=Baby, Let's Play House
TTITLE21=Don't
TTITLE22=Money Honey
TTITLE23=What'd I Say
TTITLE24=Bridge Over Troubled Water
EXTD=
EXTT0=
EXTT1=
EXTT2=
EXTT3=
EXTT4=
EXTT5=
EXTT6=
EXTT7=
EXTT8=
EXTT9=
EXTT10=
EXTT11=
EXTT12=
EXTT13=
EXTT14=
EXTT15=
EXTT16=
EXTT17=
EXTT18=
EXTT19=
EXTT20=
EXTT21=
EXTT22=
EXTT23=
EXTT24=
PLAYORDER=
